<?xml version="1.0" standalone="no"?>
<!DOCTYPE svg PUBLIC "-//W3C//DTD SVG 20010904//EN"
 "http://www.w3.org/TR/2001/REC-SVG-20010904/DTD/svg10.dtd">
<svg version="1.0" xmlns="http://www.w3.org/2000/svg"
 width="225.000000pt" height="225.000000pt" viewBox="0 0 225.000000 225.000000"
 preserveAspectRatio="xMidYMid meet">
<metadata>
Created by potrace 1.11, written by Peter Selinger 2001-2013
</metadata>
<g transform="translate(0.000000,225.000000) scale(0.100000,-0.100000)"
fill="#000000" stroke="none">
<path d="M0 1125 l0 -1125 1125 0 1125 0 0 1125 0 1125 -1125 0 -1125 0 0
-1125z m1130 530 l0 -65 39 0 c61 0 71 21 37 81 l-27 49 201 0 201 0 -66 -79
c-58 -70 -63 -80 -46 -86 10 -3 31 -17 45 -32 24 -24 26 -33 26 -109 l0 -84
-29 0 -29 0 29 -29 c27 -28 29 -34 29 -109 0 -71 -3 -84 -25 -110 -13 -16 -22
-32 -18 -36 3 -3 0 -17 -7 -31 -12 -22 -9 -28 40 -85 l52 -60 -202 0 -202 0
27 45 26 45 -21 30 c-15 22 -30 30 -51 30 l-29 0 0 -75 0 -75 -140 0 -140 0
35 70 c20 39 33 75 30 80 -4 6 -21 10 -39 10 -52 0 -134 29 -151 53 -10 15
-15 46 -15 104 l0 83 29 0 29 0 -29 29 c-28 28 -29 33 -29 120 0 73 -4 97 -20
123 -11 18 -20 36 -20 41 0 4 54 7 120 7 66 0 120 2 120 5 0 3 -14 32 -30 65
l-30 60 140 0 140 0 0 -65z m293 -852 c-167 -2 -439 -2 -605 0 -167 1 -31 2
302 2 333 0 469 -1 303 -2z m-883 -95 l0 -21 23 21 c30 28 42 28 23 0 -14 -20
-14 -24 -1 -45 18 -28 -1 -33 -21 -5 -12 16 -13 16 -19 0 -13 -32 -25 -19 -25
27 0 25 5 45 10 45 6 0 10 -10 10 -22z m140 12 c0 -5 -9 -10 -20 -10 -11 0
-20 -4 -20 -10 0 -5 9 -10 20 -10 11 0 20 -4 20 -10 0 -5 -9 -10 -20 -10 -11
0 -20 -5 -20 -11 0 -6 9 -9 20 -6 11 3 23 1 26 -4 3 -5 -13 -9 -35 -9 -41 0
-41 0 -41 38 0 21 3 42 7 45 10 11 63 8 63 -3z m59 -17 l20 -28 1 28 c0 15 5
27 10 27 6 0 10 -20 10 -45 0 -25 -3 -45 -7 -45 -4 0 -17 10 -30 22 l-23 21 0
-21 c0 -12 -4 -22 -10 -22 -5 0 -10 20 -10 45 0 52 10 56 39 18z m124 7 c9 34
27 13 27 -31 0 -45 -19 -53 -44 -17 l-16 22 0 -22 c0 -13 -6 -22 -15 -22 -11
0 -15 11 -15 38 0 50 8 57 35 32 l22 -21 6 21z m112 10 c4 -6 -5 -10 -19 -10
-14 0 -26 -4 -26 -10 0 -5 9 -10 20 -10 11 0 20 -4 20 -10 0 -5 -9 -10 -20
-10 -11 0 -20 -5 -20 -11 0 -6 9 -9 20 -6 11 3 23 1 26 -4 3 -5 -11 -9 -30 -9
-36 0 -36 0 -36 45 0 43 1 45 29 45 17 0 33 -4 36 -10z m74 -5 c-1 -5 -10 -9
-21 -7 -10 2 -18 -1 -18 -7 0 -5 10 -11 22 -13 13 -2 24 -11 26 -20 4 -20 -30
-40 -52 -32 -23 9 -20 27 3 19 11 -3 22 -2 25 4 3 5 -5 12 -19 15 -24 6 -34
34 -18 50 11 10 54 3 52 -9z m91 -27 c13 -30 16 -44 8 -47 -7 -2 -14 1 -16 8
-2 6 -12 11 -22 11 -10 0 -20 -5 -22 -11 -2 -7 -9 -10 -14 -8 -13 5 22 89 37
89 5 0 19 -19 29 -42z m43 10 l14 -33 7 33 c10 40 24 41 38 1 l11 -31 15 33
c18 42 28 22 12 -26 -14 -42 -35 -45 -48 -7 l-10 27 -7 -27 c-13 -51 -36 -36
-59 40 -11 35 12 26 27 -10z m307 22 c0 -6 -4 -10 -10 -10 -5 0 -10 -16 -10
-35 0 -24 -5 -35 -15 -35 -10 0 -15 11 -15 35 0 34 -1 35 -40 35 -46 0 -51 -6
-15 -20 14 -5 25 -16 25 -24 0 -19 -34 -38 -54 -30 -23 9 -20 27 3 19 11 -3
22 -2 25 4 3 5 -5 12 -19 15 -26 7 -35 41 -12 49 25 8 137 6 137 -3z m71 -38
c15 -35 16 -42 4 -42 -8 0 -15 5 -15 10 0 14 -37 13 -42 -1 -2 -7 -9 -10 -15
-8 -15 6 24 92 39 87 6 -2 20 -23 29 -46z m84 38 c3 -5 -1 -10 -9 -10 -12 0
-16 -10 -16 -35 0 -19 -4 -35 -10 -35 -5 0 -10 16 -10 35 0 24 -5 35 -15 35
-8 0 -15 5 -15 10 0 6 15 10 34 10 19 0 38 -4 41 -10z m80 0 c4 -6 -5 -10 -19
-10 -14 0 -26 -4 -26 -10 0 -5 9 -10 20 -10 11 0 20 -4 20 -10 0 -5 -9 -10
-20 -10 -11 0 -20 -5 -20 -11 0 -6 9 -9 20 -6 11 3 23 1 26 -4 3 -5 -11 -9
-30 -9 -36 0 -36 0 -36 45 0 43 1 45 29 45 17 0 33 -4 36 -10z m-1172 -188
c13 -3 17 3 17 27 0 16 5 33 10 36 15 9 12 -38 -3 -59 -7 -10 -22 -17 -33 -15
-15 3 -19 13 -21 44 l-1 40 6 -35 c5 -22 14 -36 25 -38z m168 43 c6 26 7 23 7
-15 l1 -45 -24 29 -23 29 -5 -29 c-3 -21 -4 -16 -5 16 l-1 45 22 -30 22 -29 6
29z m106 -37 c-2 -13 -4 -3 -4 22 0 25 2 35 4 23 2 -13 2 -33 0 -45z m99 30
l17 -33 14 34 c8 18 16 31 19 28 7 -6 -28 -77 -38 -77 -4 0 -8 2 -8 4 0 2 -7
20 -15 40 -19 45 -11 47 11 4z m162 25 c-32 -5 -38 -23 -8 -23 11 0 20 -4 20
-9 0 -5 -7 -8 -16 -7 -30 2 -26 -22 3 -27 27 -4 27 -4 -4 -6 -32 -1 -33 0 -33
39 0 39 1 40 33 39 30 -2 30 -2 5 -6z m152 -8 c9 -11 10 -19 1 -28 -8 -10 -7
-17 1 -25 9 -9 9 -12 0 -12 -7 0 -12 5 -12 10 0 14 -37 12 -43 -2 -3 -7 -6 6
-6 30 -1 38 1 42 23 42 13 0 29 -7 36 -15z m113 8 c-30 -6 -29 -17 3 -32 32
-14 27 -36 -9 -37 -26 -1 -26 -1 -2 3 32 6 32 19 0 27 -39 10 -32 47 9 45 19
-2 19 -2 -1 -6z m104 -55 c-2 -13 -4 -3 -4 22 0 25 2 35 4 23 2 -13 2 -33 0
-45z m131 55 c-13 -3 -19 -16 -20 -41 l-1 -37 -4 37 c-3 24 -10 38 -21 41 -9
3 1 5 23 5 22 0 32 -2 23 -5z m124 -11 l20 23 -16 -25 c-9 -13 -16 -34 -16
-45 0 -14 -6 -9 -20 18 -24 44 -26 60 -4 29 l15 -22 21 22z"/>
<path d="M900 1685 c0 -3 9 -23 20 -45 39 -77 36 -80 -96 -80 -114 0 -115 0
-101 -21 11 -15 13 -40 10 -102 -5 -73 -3 -85 16 -109 21 -26 80 -50 154 -63
36 -6 37 -7 37 -47 0 -37 -2 -40 -22 -34 -13 3 -26 6 -30 6 -5 0 -8 11 -8 25
0 24 -2 25 -75 25 l-75 0 0 -60 c0 -80 21 -103 112 -119 35 -6 72 -11 81 -11
24 0 22 -51 -3 -100 -11 -22 -20 -42 -20 -45 0 -3 45 -5 100 -5 l100 0 0 70 0
70 53 0 c48 0 54 -3 81 -36 26 -33 27 -38 15 -62 -7 -15 -15 -30 -17 -34 -2
-5 62 -8 143 -8 l146 0 -65 78 -66 77 39 8 c67 13 81 36 81 127 0 73 -2 80
-26 99 -30 23 -65 34 -171 51 l-72 12 27 34 c21 26 34 34 60 34 29 0 32 -3 32
-30 l0 -30 75 0 75 0 0 69 c0 77 -6 86 -69 105 l-40 11 60 73 61 72 -147 0
c-81 0 -145 -3 -143 -7 2 -5 10 -20 17 -35 12 -24 11 -30 -8 -57 -21 -29 -27
-31 -82 -31 l-59 0 0 65 0 65 -100 0 c-55 0 -100 -2 -100 -5z m160 -80 l0 -45
-40 0 c-36 0 -40 2 -40 26 0 14 -5 34 -10 45 -10 18 -7 19 40 19 l50 0 0 -45z
m364 33 c-6 -10 -184 -227 -270 -328 -11 -13 7 -40 127 -185 77 -93 143 -173
145 -177 3 -4 -25 -8 -61 -8 -59 0 -66 2 -61 18 4 12 -31 60 -110 157 -64 77
-120 142 -125 143 -5 2 -9 -15 -9 -38 l0 -41 -37 3 -38 3 -3 118 -3 117 40 0
40 0 3 -51 3 -52 123 148 c89 108 121 153 116 167 -5 16 1 18 61 18 50 0 64
-3 59 -12z m-269 -148 l-29 -30 -120 0 c-156 0 -168 -4 -164 -44 3 -27 9 -33
50 -46 42 -13 48 -18 48 -42 0 -33 1 -32 -75 -13 -83 22 -95 36 -95 106 0 32
5 61 11 64 6 4 8 13 5 21 -4 12 28 14 196 14 l202 0 -29 -30z m298 -2 c12 -6
17 -21 17 -48 0 -39 -1 -40 -35 -40 -30 0 -35 3 -35 25 0 20 -6 25 -36 31
l-35 6 22 25 c24 24 57 25 102 1z m-513 -78 c0 -13 -30 -13 -50 0 -11 7 -7 10
18 10 17 0 32 -4 32 -10z m488 -134 l37 -13 0 -74 0 -74 -50 -12 c-46 -12 -51
-11 -72 9 -32 29 -29 36 15 40 33 3 37 6 40 34 3 28 -1 33 -28 43 -18 6 -55
13 -83 17 -58 7 -104 39 -87 59 11 14 160 -6 228 -29z m-88 -76 c22 -1 23 -2
7 -11 -23 -14 -69 -8 -75 10 -4 10 1 12 19 8 13 -4 35 -7 49 -7z m-498 -22 c2
-19 11 -24 53 -30 28 -3 91 -7 140 -8 88 -1 91 -2 115 -32 l24 -31 -137 7
c-148 7 -232 20 -254 37 -7 6 -13 27 -13 45 0 32 2 34 34 34 28 0 35 -4 38
-22z m218 -189 l0 -49 -50 0 c-47 0 -50 1 -40 19 5 11 10 33 10 49 0 37 2 39
45 34 35 -4 35 -5 35 -53z"/>
<path d="M1450 1036 c0 -9 7 -16 16 -16 9 0 14 5 12 12 -6 18 -28 21 -28 4z"/>
<path d="M1100 680 c0 -5 5 -10 10 -10 6 0 10 5 10 10 0 6 -4 10 -10 10 -5 0
-10 -4 -10 -10z"/>
<path d="M1520 680 c0 -5 5 -10 10 -10 6 0 10 5 10 10 0 6 -4 10 -10 10 -5 0
-10 -4 -10 -10z"/>
<path d="M1190 575 c0 -21 30 -31 40 -14 11 17 3 29 -21 29 -10 0 -19 -7 -19
-15z"/>
</g>
</svg>
